<svg xmlns="http://www.w3.org/2000/svg" width="24" height="24" viewBox="0 0 24 24"><defs><style>.a{opacity:0;}.b{fill:#6186fe;}.b,.c{stroke:#6186fe;}.c{fill:#fff;stroke-width:2px;}.d{fill:#f6a35e;}.e{stroke:none;}.f{fill:none;}</style></defs><g transform="translate(-133 -379)"><rect class="a" width="24" height="24" transform="translate(133 379)"/><g transform="translate(-459 233)"><g class="b" transform="translate(594 161)"><rect class="e" width="19" height="2" rx="1"/><rect class="f" x="0.5" y="0.5" width="18" height="1" rx="0.5"/></g><g class="c" transform="translate(608 154)"><path class="e" d="M0,0H2A4,4,0,0,1,6,4V9A0,0,0,0,1,6,9H0A0,0,0,0,1,0,9V0A0,0,0,0,1,0,0Z"/><path class="f" d="M2,1H2A3,3,0,0,1,5,4V7A1,1,0,0,1,4,8H2A1,1,0,0,1,1,7V2A1,1,0,0,1,2,1Z"/></g><rect class="d" width="10" height="2" transform="translate(596 157)"/><rect class="d" width="10" height="2" transform="translate(596 151)"/><rect class="d" width="7" height="2" transform="translate(596 154)"/><rect class="d" width="2" height="2" transform="translate(604 154)"/><g class="c" transform="translate(606 160)"><circle class="e" cx="2.5" cy="2.5" r="2.5"/><circle class="f" cx="2.5" cy="2.5" r="1.5"/></g><g class="c" transform="translate(597 160)"><circle class="e" cx="2.5" cy="2.5" r="2.5"/><circle class="f" cx="2.5" cy="2.5" r="1.5"/></g></g></g></svg>