<?xml version="1.0" encoding="UTF-8" standalone="no"?>
<!-- Created with Inkscape (http://www.inkscape.org/) -->

<svg
   xmlns:dc="http://purl.org/dc/elements/1.1/"
   xmlns:cc="http://creativecommons.org/ns#"
   xmlns:rdf="http://www.w3.org/1999/02/22-rdf-syntax-ns#"
   xmlns:svg="http://www.w3.org/2000/svg"
   xmlns="http://www.w3.org/2000/svg"
   xmlns:sodipodi="http://sodipodi.sourceforge.net/DTD/sodipodi-0.dtd"
   xmlns:inkscape="http://www.inkscape.org/namespaces/inkscape"
   width="128mm"
   height="128mm"
   viewBox="0 0 128 128"
   version="1.1"
   id="svg4457"
   sodipodi:docname="truck.svg"
   inkscape:version="0.92.2 (5c3e80d, 2017-08-06)">
  <metadata
     id="metadata4463">
    <rdf:RDF>
      <cc:Work
         rdf:about="">
        <dc:format>image/svg+xml</dc:format>
        <dc:type
           rdf:resource="http://purl.org/dc/dcmitype/StillImage" />
        <dc:title></dc:title>
      </cc:Work>
    </rdf:RDF>
  </metadata>
  <defs
     id="defs4461" />
  <sodipodi:namedview
     pagecolor="#ffffff"
     bordercolor="#666666"
     borderopacity="1"
     objecttolerance="10"
     gridtolerance="10"
     guidetolerance="10"
     inkscape:pageopacity="0"
     inkscape:pageshadow="2"
     inkscape:window-width="1920"
     inkscape:window-height="1017"
     id="namedview4459"
     showgrid="false"
     inkscape:zoom="0.97565104"
     inkscape:cx="184.07026"
     inkscape:cy="160.14836"
     inkscape:window-x="-8"
     inkscape:window-y="-8"
     inkscape:window-maximized="1"
     inkscape:current-layer="svg4457" />
  <path
     inkscape:connector-curvature="0"
     style="fill:#000000;stroke-width:0;stroke-miterlimit:4;stroke-dasharray:none;stroke-opacity:1"
     d="M 3.5099505,26.220723 3.2784488,93.102054 17.824374,93.149684 A 11.621167,11.166726 0 0 1 29.439638,82.101956 11.621167,11.166726 0 0 1 41.063177,93.231729 l 37.573955,0.131136 0.231459,-66.885475 z"
     id="path5022" />
  <path
     inkscape:connector-curvature="0"
     style="fill:#000000;stroke-width:0;stroke-miterlimit:4;stroke-dasharray:none;stroke-opacity:1"
     d="m 82.084513,40.175076 0.595137,51.953718 c 6.873749,0 6.87435,0.189427 6.87435,0.189427 l 2.856505,-0.01518 a 12.078158,11.159047 0 0 1 12.065285,-10.953412 12.078158,11.159047 0 0 1 12.06635,10.830376 l 9.53534,-0.04686 -0.19333,-27.753117 -20.81745,-24.008226 z m 19.250077,4.975261 11.3874,12.936688 v 4.129607 L 86.99506,62.028236 V 45.897429 Z"
     id="path5018" />
  <path
     inkscape:connector-curvature="0"
     style="fill:#000000;stroke-width:0;stroke-miterlimit:4;stroke-dasharray:none;stroke-opacity:1"
     d="m 104.54991,83.512154 a 10.109472,9.8529945 0 0 0 -10.105768,9.852883 10.109472,9.8529945 0 0 0 10.105768,9.852883 10.109472,9.8529945 0 0 0 10.11116,-9.852883 10.109472,9.8529945 0 0 0 -10.11116,-9.852883 z m 0,6.941943 a 2.9289149,2.9089823 0 0 1 2.93066,2.91094 2.9289149,2.9089823 0 0 1 -2.93066,2.910956 2.9289149,2.9089823 0 0 1 -2.92634,-2.910956 2.9289149,2.9089823 0 0 1 2.92634,-2.91094 z"
     id="path5014" />
  <path
     inkscape:connector-curvature="0"
     style="fill:#000000;stroke-width:0;stroke-miterlimit:4;stroke-dasharray:none;stroke-opacity:1"
     d="M 29.53487,83.700626 A 10.109472,9.8529945 0 0 0 19.42801,93.55351 10.109472,9.8529945 0 0 0 29.53487,103.40639 10.109472,9.8529945 0 0 0 39.644954,93.55351 10.109472,9.8529945 0 0 0 29.53487,83.700626 Z m 0,6.942909 a 2.9289149,2.9089823 0 0 1 2.93064,2.909975 2.9289149,2.9089823 0 0 1 -2.93064,2.910939 2.9289149,2.9089823 0 0 1 -2.926355,-2.910939 2.9289149,2.9089823 0 0 1 2.926355,-2.909975 z"
     id="path5012" />
</svg>
